# AST/ASF file generated using VICON BodyLanguage
# -----------------------------------------------
:version 1.10
:name VICON
:units
  mass 1.0
  length 0.45
  angle deg
:documentation
   .ast/.asf automatically generated from VICON data using
   VICON BodyBuilder and BodyLanguage model FoxedUp or BRILLIANT.MOD
:root
   order TX TY TZ RX RY RZ
   axis XYZ
   position 0 0 0  
   orientation 0 0 0 
:bonedata
  begin
     id 1 
     name lhipjoint
     direction 0.602128 -0.715006 0.355257 
     length 2.21237 
     axis 0 0 0  XYZ
  end
  begin
     id 2 
     name lfemur
     direction 0.34202 -0.939693 0  
     length 6.71649  
     axis 0 0 20  XYZ
    dof rx ry rz
    limits (-160.0 20.0)
           (-70.0 70.0)
           (-60.0 70.0)
  end
  begin
     id 3 
     name ltibia
     direction 0.34202 -0.939693 0   
     length 6.97123   
     axis 0 0 20   XYZ
    dof rx
    limits (-10.0 170.0)
  end
  begin
     id 4 
     name lfoot
     direction 0.0655697 -0.180151 0.981451   
     length 1.80924   
     axis -90 7.62852e-016 20   XYZ
    dof rx rz
    limits (-45.0 90.0)
           (-70.0 20.0)
  end
  begin
     id 5 
     name ltoes
     direction 1.53545e-011 -4.21827e-011 1   
     length 0.916331   
     axis -90 7.62852e-016 20   XYZ
    dof rx
    limits (-90.0 20.0)
  end
  begin
     id 6 
     name rhipjoint
     direction -0.625414 -0.698792 0.347201   
     length 2.2637  
     axis 0 0 0  XYZ 
  end
  begin
     id 7 
     name rfemur
     direction -0.34202 -0.939693 0   
     length 7.07595   
     axis 0 0 -20   XYZ
    dof rx ry rz
    limits (-160.0 20.0)
           (-70.0 70.0)
           (-70.0 60.0)
  end
  begin
     id 8 
     name rtibia
     direction -0.34202 -0.939693 0   
     length 7.22924   
     axis 0 0 -20   XYZ
    dof rx
    limits (-10.0 170.0)
 end
 begin
     id 9 
     name rfoot
     direction -0.0766747 -0.210662 0.974547   
     length 1.98482  
     axis -90 -7.62852e-016 -20   XYZ
    dof rx rz
    limits (-45.0 90.0)
           (-20.0 70.0)
  end
  begin
     id 10 
     name rtoes
     direction -1.53532e-011 -4.21867e-011 1   
     length 0.999842   
     axis -90 -7.62852e-016 -20   XYZ
    dof rx
    limits (-90.0 20.0)
  end
  begin
     id 11 
     name lowerback
     direction -0.0224668 0.997354 -0.0691422   
     length 2.09945   
     axis 0 0 0   XYZ
    dof rx ry rz
    limits (-20.0 45.0)
           (-30.0 30.0)
           (-30.0 30.0)
  end
  begin
     id 12 
     name upperback
     direction 0.0134698 0.998451 -0.0539888   
     length 2.09758   
     axis 0 0 0   XYZ
    dof rx ry rz
    limits (-20.0 45.0)
           (-30.0 30.0)
           (-30.0 30.0)
  end
  begin
     id 13 
     name thorax
     direction 0.0241905 0.99948 -0.0213333   
     length 2.10428   
     axis 0 0 0   XYZ
    dof rx ry rz
    limits (-20.0 45.0)
           (-30.0 30.0)
           (-30.0 30.0)
  end
  begin
     id 14 
     name lowerneck
     direction -0.00866847 0.995978 0.0891737   
     length 1.3959   
     axis 0 0 0   XYZ
    dof rx ry rz
    limits (-20.0 45.0)
           (-30.0 30.0)
           (-30.0 30.0)
  end
  begin
     id 15 
     name upperneck
     direction 0.0680679 0.992203 0.104404   
     length 1.39452   
     axis 0 0 0   XYZ
    dof rx ry rz
    limits (-20.0 45.0)
           (-30.0 30.0)
           (-30.0 30.0)
  end
  begin
     id 16
     name head
     direction 0.0242216 0.999358 0.0264054  
     length 1.40433  
     axis 0 0 0   XYZ
    dof rx ry rz
    limits (-20.0 45.0)
           (-30.0 30.0)
           (-30.0 30.0)
  end
  begin
     id 17 
     name lclavicle
     direction 0.929368 0.362991 -0.0671771  
     length 3.04887  
     axis 0 0 0   XYZ
    dof ry rz
    limits (-20.0 10.0)
           (0.0 20.0)
  end
  begin
     id 18 
     name lhumerus
     direction 1 -4.48967e-011 -7.13741e-028   
     length 4.77195   
     axis -180 -30 -90   XYZ
    dof rx ry rz
    limits (-60.0 90.0)
           (-90.0 90.0)
           (-90.0 90.0)
  end
  begin
     id 19
     name lradius
     direction 1 -4.48977e-011 3.60404e-027   
     length 2.98444   
     axis -180 -30 -90   XYZ
    dof rx
    limits (-10.0 170.0)
  end
  begin
     id 20
     name lwrist
     direction 1 -4.48997e-011 7.54877e-027   
     length 1.49222   
     axis -7.18178e-015 90 90   XYZ
    dof ry
    limits (-180.0 0.0)
 end
  begin
     id 21 
     name lhand
     direction 1 -4.489e-011 1.51105e-026   
     length 0.992285   
     axis -9.63605e-015 90 90   XYZ
    dof rx rz
    limits (-90.0 90.0)
           (-45.0 45.0)
  end
  begin
     id 22 
     name lfingers
     direction 1 -4.48998e-011 3.01948e-026   
     length 0.800006   
     axis -1.92718e-014 90 90   XYZ
    dof rx
    limits (0.0 90.0)
  end
  begin
     id 23
     name lthumb
     direction 0.707107 -6.34881e-011 0.707107   
     length 1.14865   
     axis -90 45 -3.53137e-014   XYZ
    dof rx rz
    limits (-45.0 45.0)
           (-45.0 45.0)
  end
  begin
     id 24 
     name rclavicle
     direction -0.945672 0.324529 0.0196374   
     length 3.4236  
     axis 0 0 0   XYZ 
    dof ry rz
    limits (-10.0 20.0)
           (-20.0 0.0)
  end
  begin
     id 25 
     name rhumerus
     direction -1 -4.4896e-011 1.02757e-029  
     length 4.62052   
     axis -180 30 90   XYZ
    dof rx ry rz
    limits (-90.0 60.0)
           (-90.0 90.0)
           (-90.0 90.0)
  end
  begin
     id 26 
     name rradius
     direction -1 -4.48982e-011 3.85962e-027   
     length 2.95332   
     axis -180 30 90   XYZ
    dof rx
    limits (-10.0 170.0)
  end
  begin
     id 27 
     name rwrist
     direction -1 -4.48961e-011 7.55118e-027   
     length 1.47666   
     axis -7.18178e-015 -90 -90   XYZ
    dof ry
    limits (-180.0 0.0)
  end
  begin
     id 28
     name rhand
     direction -1 -4.48984e-011 1.50994e-026   
     length 0.990956   
     axis -9.63605e-015 -90 -90   XYZ
    dof rx rz
    limits (-90.0 90.0)
           (-45.0 45.0)
  end
  begin
     id 29
     name rfingers
     direction -1 -4.4892e-011 3.02158e-026   
     length 0.798934   
     axis -1.92718e-014 -90 -90   XYZ
    dof rx
    limits (0.0 90.0)
  end
  begin
     id 30
     name rthumb
     direction -0.707107 -6.34916e-011 0.707107   
     length 1.14711   
     axis -90 -45 3.53137e-014   XYZ
    dof rx rz
    limits (-45.0 45.0)
           (-45.0 45.0)
  end
:hierarchy
  begin
    root lhipjoint rhipjoint lowerback
    lhipjoint lfemur
    lfemur ltibia
    ltibia lfoot
    lfoot ltoes
    rhipjoint rfemur
    rfemur rtibia
    rtibia rfoot
    rfoot rtoes
    lowerback upperback
    upperback thorax
    thorax lowerneck lclavicle rclavicle
    lowerneck upperneck
    upperneck head
    lclavicle lhumerus
    lhumerus lradius
    lradius lwrist
    lwrist lhand lthumb
    lhand lfingers
    rclavicle rhumerus
    rhumerus rradius
    rradius rwrist
    rwrist rhand rthumb
    rhand rfingers
  end

#!OML:ASF H:\ManfredObstacles\Project 1\Capture day 1\Session 1\Male.ASF
:FULLY-SPECIFIED
:DEGREES
96
root 0.360194 16.3154 27.2903 -170.703 -6.66572 182.545
lowerback -9.83988 -2.11719 -2.14521
upperback 1.02693 -2.6298 0.816325
thorax 6.74363 -1.38934 1.6544
lowerneck 3.74336 -1.98292 -4.23969
upperneck -7.00606 -2.56423 8.42153
head -2.77518 -1.53819 3.65771
rclavicle 3.35449e-014 2.38542e-015
rhumerus -42.7737 -28.8114 -68.4705
rradius 22.3307
rwrist 40.9894
rhand 0.19064 -7.27545
rfingers 7.12502
rthumb 25.773 -35.5498
lclavicle 3.35449e-014 2.38542e-015
lhumerus -27.9277 14.465 83.2025
lradius 20.7551
lwrist -27.285
lhand -7.97615 8.52011
lfingers 7.12502
lthumb 17.9318 37.7134
rfemur -23.6025 -8.67025 28.2037
rtibia 24.6271
rfoot -16.1939 11.4454
rtoes 21.9706
lfemur -17.8876 -2.22768 -15.003
ltibia 57.3247
lfoot 12.1674 -1.33366
ltoes -12.3943
97
root 0.388929 16.3216 27.1275 -170.947 -6.50742 182.924
lowerback -9.76615 -1.97211 -1.73426
upperback 1.15359 -2.49138 0.902178
thorax 6.81479 -1.30895 1.53581
lowerneck 2.92719 -1.82392 -4.65069
upperneck -5.84929 -2.37892 8.82598
head -2.24338 -1.41235 3.8213
rclavicle 3.33461e-014 1.35174e-014
rhumerus -41.7031 -28.1379 -69.3244
rradius 22.5236
rwrist 40.5452
rhand -0.196399 -7.2351
rfingers 7.12502
rthumb 25.4022 -35.5627
lclavicle 3.33461e-014 1.35174e-014
lhumerus -27.5775 15.9278 82.8649
lradius 20.2971
lwrist -28.1937
lhand -8.58204 8.31448
lfingers 7.12502
lthumb 17.3487 37.5602
rfemur -22.4017 -9.18177 28.7694
rtibia 23.9531
rfoot -16.5427 12.0739
rtoes 21.9064
lfemur -20.627 -2.06985 -14.667
ltibia 61.3134
lfoot 11.0271 0.100065
ltoes -7.90712
98
root 0.419246 16.3367 26.964 -171.302 -6.26309 183.061
lowerback -9.56734 -1.83908 -1.6483
upperback 1.28203 -2.32783 0.940129
thorax 6.82879 -1.22686 1.55706
lowerneck 2.71465 -1.8379 -4.74029
upperneck -5.09788 -2.41863 8.81505
head -1.95118 -1.40748 3.81091
rclavicle -4.6615e-014 9.14409e-015
rhumerus -40.8637 -27.7366 -69.8657
rradius 22.7452
rwrist 40.6697
rhand -0.531714 -7.08558
rfingers 7.12502
rthumb 25.081 -35.4585
lclavicle -4.6615e-014 9.14409e-015
lhumerus -27.5338 17.0933 82.5499
lradius 20.0979
lwrist -28.6907
lhand -9.08586 8.243
lfingers 7.12502
lthumb 16.8638 37.5308
rfemur -21.0652 -9.55278 28.9686
rtibia 23.384
rfoot -16.8778 12.7367
rtoes 21.6468
lfemur -22.8564 -1.88399 -14.6645
ltibia 64.3762
lfoot 8.96425 1.3739
ltoes -5.65598
99
root 0.451831 16.3421 26.8023 -171.583 -5.86971 183.01
lowerback -9.46019 -1.6626 -1.80606
upperback 1.40438 -2.07074 0.904783
thorax 6.89116 -1.10686 1.64999
lowerneck 2.80479 -1.89475 -4.61489
upperneck -4.57977 -2.51012 8.67957
head -1.79166 -1.44039 3.72979
rclavicle 1.6201e-014 1.98785e-015
rhumerus -40.0806 -27.7219 -70.204
rradius 22.8499
rwrist 41.0033
rhand -0.78767 -7.0092
rfingers 7.12502
rthumb 24.8357 -35.4162
lclavicle 1.6201e-014 1.98785e-015
lhumerus -27.5876 17.6225 82.3684
lradius 20.099
lwrist -28.612
lhand -9.25723 9.09306
lfingers 7.12502
lthumb 16.6988 38.3948
rfemur -19.8519 -9.75222 28.9391
rtibia 22.9657
rfoot -17.3014 13.3324
rtoes 21.0188
lfemur -24.8554 -1.70087 -14.9383
ltibia 66.5041
lfoot 7.15941 1.97322
ltoes -2.40148
100
root 0.481251 16.3485 26.6377 -171.743 -5.44506 182.748
lowerback -9.44263 -1.50586 -2.14094
upperback 1.45606 -1.81163 0.776184
thorax 6.93112 -0.990374 1.74343
lowerneck 2.78233 -1.87543 -4.72678
upperneck -3.77441 -2.52005 8.92725
head -1.52077 -1.43559 3.82057
rclavicle 8.00108e-015 -2.38542e-014
rhumerus -39.3792 -27.8272 -70.482
rradius 22.8754
rwrist 41.2785
rhand -1.04211 -6.89483
rfingers 7.12502
rthumb 24.5918 -35.3352
lclavicle 8.00108e-015 -2.38542e-014
lhumerus -27.7434 17.7693 82.1816
lradius 20.1447
lwrist -28.2594
lhand -9.18307 9.87532
lfingers 7.12502
lthumb 16.7702 39.171
rfemur -18.8481 -9.97968 28.693
rtibia 22.7448
rfoot -17.9024 13.8223
rtoes 20.4452
lfemur -26.9038 -1.79926 -15.4384
ltibia 67.6955
lfoot 5.37062 2.43667
ltoes -2.6397
101
root 0.505186 16.3526 26.474 -171.884 -5.02999 182.555
lowerback -9.4425 -1.34339 -2.33078
upperback 1.48696 -1.56171 0.635215
thorax 6.95294 -0.872556 1.74061
lowerneck 2.71522 -1.86987 -4.74156
upperneck -2.90546 -2.55741 9.10357
head -1.22165 -1.44368 3.86729
rclavicle -9.83984e-015 5.1684e-015
rhumerus -38.6673 -27.5773 -71.0807
rradius 23.1076
rwrist 40.995
rhand -1.16752 -6.97165
rfingers 7.12502
rthumb 24.4716 -35.4284
lclavicle -9.83984e-015 5.1684e-015
lhumerus -27.904 17.6192 81.9918
lradius 20.1493
lwrist -27.7944
lhand -8.95899 9.93521
lfingers 7.12502
lthumb 16.9859 39.2125
rfemur -17.9995 -10.2925 28.5015
rtibia 22.6972
rfoot -18.4821 14.4516
rtoes 20.1439
lfemur -28.7939 -2.01458 -15.837
ltibia 68.0909
lfoot 4.18606 2.7855
ltoes -3.15604
102
root 0.526481 16.3485 26.3125 -172.004 -4.507 182.447
lowerback -9.44565 -1.15604 -2.41968
upperback 1.52804 -1.29358 0.536771
thorax 6.98464 -0.743191 1.72837
lowerneck 2.66657 -1.88192 -4.535
upperneck -2.27922 -2.60146 8.93005
head -1.01044 -1.45286 3.75387
rclavicle 3.5334e-014 1.19271e-015
rhumerus -37.9291 -26.7698 -72.0721
rradius 23.6486
rwrist 39.9732
rhand -1.15074 -7.37172
rfingers 7.12502
rthumb 24.4877 -35.8263
lclavicle 3.5334e-014 1.19271e-015
lhumerus -28.0798 17.2815 81.8794
lradius 20.2122
lwrist -27.384
lhand -8.75333 9.47895
lfingers 7.12502
lthumb 17.1839 38.7391
rfemur -17.2374 -10.4935 28.3768
rtibia 22.7294
rfoot -19.0671 15.1237
rtoes 19.6475
lfemur -30.4147 -2.15489 -16.1368
ltibia 67.8086
lfoot 1.85747 2.1168
ltoes -3.73476
103
root 0.544511 16.3392 26.149 -171.997 -3.88456 182.316
lowerback -9.5463 -0.956662 -2.45528
upperback 1.51918 -1.01239 0.408469
thorax 7.01665 -0.604532 1.65586
lowerneck 2.72345 -1.84814 -4.47855
upperneck -1.86884 -2.57951 8.84848
head -0.891416 -1.43552 3.70835
rclavicle 1.05356e-014 1.43125e-014
rhumerus -37.3418 -25.866 -73.1033
rradius 24.2663
rwrist 38.7615
rhand -1.10269 -7.62677
rfingers 7.12502
rthumb 24.5338 -36.0751
lclavicle 1.05356e-014 1.43125e-014
lhumerus -28.3805 16.8003 81.7269
lradius 20.4029
lwrist -27.0827
lhand -8.45214 8.90449
lfingers 7.12502
lthumb 17.4737 38.1392
rfemur -16.6311 -10.5108 28.2088
rtibia 22.8424
rfoot -19.6942 15.7446
rtoes 19.0776
lfemur -31.9479 -2.30868 -16.4433
ltibia 66.8978
lfoot 0.220924 1.95614
ltoes -1.92023
104
root 0.560944 16.3234 25.9889 -171.874 -3.23838 182.361
lowerback -9.73051 -0.705364 -2.23826
upperback 1.48676 -0.690428 0.270283
thorax 7.06641 -0.435765 1.43694
lowerneck 2.7838 -1.82453 -4.42913
upperneck -1.50353 -2.57217 8.84496
head -0.785897 -1.42916 3.69296
rclavicle -1.33683e-014 -2.42517e-014
rhumerus -36.8258 -24.9514 -74.1615
rradius 24.9303
rwrist 37.4109
rhand -0.978897 -7.64968
rfingers 7.12502
rthumb 24.6524 -36.0818
lclavicle -1.33683e-014 -2.42517e-014
lhumerus -28.6967 16.1743 81.5184
lradius 20.6478
lwrist -26.743
lhand -7.97168 8.71147
lfingers 7.12502
lthumb 17.9361 37.9044
rfemur -16.2419 -10.1954 28.2161
rtibia 23.1179
rfoot -20.3081 16.1411
rtoes 18.5966
lfemur -33.5069 -2.43382 -16.4851
ltibia 65.4392
lfoot -0.997926 2.84091
ltoes -1.09725
